<svg width="25" height="24" viewBox="0 0 25 24" fill="none" xmlns="http://www.w3.org/2000/svg">
<rect width="24" height="24" transform="translate(0.600098)" fill="#FAFAFA"/>
<path d="M20.7114 3.67461L13.6763 8.87865L14.988 5.81083L20.7114 3.67461Z" fill="#E17726" stroke="#E17726" stroke-width="0.25" stroke-linecap="round" stroke-linejoin="round"/>
<path d="M4.48883 3.67461L11.4597 8.92148L10.2122 5.81619L4.48883 3.67461ZM18.1789 15.7371L16.305 18.5961L20.3151 19.699L21.4609 15.8013L18.1789 15.7371ZM3.74463 15.8013L4.88502 19.699L8.88443 18.5961L7.02125 15.7371L3.74463 15.8013Z" fill="#E27625" stroke="#E27625" stroke-width="0.25" stroke-linecap="round" stroke-linejoin="round"/>
<path d="M8.67026 10.9078L7.55664 12.589L11.5186 12.771L11.3901 8.5039L8.67026 10.9132V10.9078ZM16.5299 10.9132L13.7672 8.45036L13.6762 12.771L17.6381 12.589L16.5299 10.9132ZM8.88442 18.5961L11.2883 17.4397L9.22172 15.8335L8.88442 18.5961ZM13.9171 17.4343L16.305 18.5961L15.9838 15.8281L13.9171 17.4343Z" fill="#E27625" stroke="#E27625" stroke-width="0.25" stroke-linecap="round" stroke-linejoin="round"/>
<path d="M16.305 18.5961L13.9171 17.4397L14.1099 18.9923L14.0884 19.6508L16.305 18.5961ZM8.8844 18.5961L11.1116 19.6508L11.0956 18.9923L11.2883 17.4397L8.8844 18.5961Z" fill="#D5BFB2" stroke="#D5BFB2" stroke-width="0.25" stroke-linecap="round" stroke-linejoin="round"/>
<path d="M11.1492 14.8001L9.16821 14.2219L10.5709 13.5794L11.1545 14.8001H11.1492ZM14.0457 14.8001L14.6346 13.574L16.0427 14.2165L14.0457 14.8054V14.8001Z" fill="#233447" stroke="#233447" stroke-width="0.25" stroke-linecap="round" stroke-linejoin="round"/>
<path d="M8.88442 18.5961L9.23242 15.737L7.02124 15.8013L8.88442 18.5961ZM15.9677 15.737L16.305 18.5961L18.1789 15.8013L15.9677 15.737ZM17.6435 12.5889L13.6816 12.7709L14.0456 14.8055L14.6346 13.574L16.0427 14.2165L17.6435 12.5889ZM9.16818 14.2219L10.5709 13.5794L11.1545 14.8001L11.5239 12.7656L7.56199 12.5889L9.16818 14.2219Z" fill="#CC6228" stroke="#CC6228" stroke-width="0.25" stroke-linecap="round" stroke-linejoin="round"/>
<path d="M7.56201 12.5889L9.22174 15.8281L9.1682 14.2219L7.56201 12.5889ZM16.0427 14.2219L15.9784 15.8281L17.6382 12.5889L16.0427 14.2219ZM11.5239 12.7709L11.1492 14.8055L11.6203 17.204L11.7274 14.0398L11.5239 12.7709ZM13.6762 12.7709L13.4835 14.0345L13.5799 17.204L14.0457 14.8001L13.6762 12.7656V12.7709Z" fill="#E27525" stroke="#E27525" stroke-width="0.25" stroke-linecap="round" stroke-linejoin="round"/>
<path d="M14.0457 14.8002L13.5799 17.2041L13.9172 17.4397L15.9784 15.8335L16.0427 14.222L14.0457 14.8002ZM9.1682 14.222L9.22174 15.8281L11.2884 17.4343L11.6203 17.2041L11.1545 14.8002L9.16284 14.222H9.1682Z" fill="#F5841F" stroke="#F5841F" stroke-width="0.25" stroke-linecap="round" stroke-linejoin="round"/>
<path d="M14.0938 19.6508L14.1099 18.9922L13.9278 18.8423H11.2723L11.0956 18.9922L11.1116 19.6508L8.8844 18.596L9.66608 19.2385L11.2455 20.3254H13.9492L15.534 19.2332L16.305 18.596L14.0884 19.6508H14.0938Z" fill="#C0AC9D" stroke="#C0AC9D" stroke-width="0.25" stroke-linecap="round" stroke-linejoin="round"/>
<path d="M13.9171 17.4343L13.5798 17.2041H11.6203L11.2883 17.4396L11.0956 18.9923L11.2723 18.8424H13.9278L14.1099 18.9923L13.9171 17.4396V17.4343Z" fill="#161616" stroke="#161616" stroke-width="0.25" stroke-linecap="round" stroke-linejoin="round"/>
<path d="M21.0112 9.21595L21.6001 6.35158L20.7113 3.67461L13.9118 8.70732L16.5299 10.9078L20.2241 11.9839L21.0379 11.0363L20.6846 10.7793L21.2467 10.2653L20.8184 9.93338L21.3806 9.50506L21.0058 9.21595H21.0112ZM3.6001 6.34623L4.19974 9.21595L3.81426 9.49971L4.38713 9.92803L3.95881 10.2653L4.51562 10.7793L4.16226 11.0363L4.97606 11.9839L8.67029 10.9132L11.2884 8.70197L4.48885 3.67461L3.6001 6.34623Z" fill="#763E1A" stroke="#763E1A" stroke-width="0.25" stroke-linecap="round" stroke-linejoin="round"/>
<path d="M20.2241 11.9839L16.5299 10.9131L17.6435 12.5889L15.9838 15.8281L18.1789 15.8013H21.4609L20.2241 11.9839ZM8.67027 10.9078L4.97604 11.9839L3.74463 15.8013H7.0266L9.22173 15.8281L7.562 12.5889L8.67562 10.9078H8.67027ZM13.6762 12.771L13.9171 8.70196L14.9879 5.81082H10.2122L11.283 8.70196L11.5239 12.771L11.6149 14.0452V17.204H13.5798L13.5906 14.0452L13.6762 12.771Z" fill="#F5841F" stroke="#F5841F" stroke-width="0.25" stroke-linecap="round" stroke-linejoin="round"/>
</svg>
